<svg version="1.1" xmlns="http://www.w3.org/2000/svg" xmlns:xlink="http://www.w3.org/1999/xlink" width="500" height="500"><g data-paper-data="{&quot;description&quot;:&quot;Logo for ABOUT\n==============\n\nThis logo was generated by MarkMaker at http://emblemmatic.org/markmaker/ and may be composed of elements designed by others.\n\nThe font is Hind Madurai SemiBold designed by Indian Type Foundry and released under the OFL license via Google Fonts: https://www.google.com/fonts/specimen/Hind%20Madurai. The font includes this copyright statement: Copyright (c) 2015 Indian Type Foundry (info@indiantypefoundry.com)\n\nMarkMaker uses semantic data from the Princeton University WordNet database http://wordnet.princeton.edu and font descriptions from Google Fonts https://www.google.com/fonts.&quot;}" fill="#3b3937" fill-rule="nonzero" stroke="none" stroke-width="1" stroke-linecap="butt" stroke-linejoin="miter" stroke-miterlimit="10" stroke-dasharray="" stroke-dashoffset="0" font-family="none" font-weight="none" font-size="none" text-anchor="none" style="mix-blend-mode: normal"><g data-paper-data="{&quot;elementType&quot;:&quot;logo&quot;}"><g data-paper-data="{&quot;elementType&quot;:&quot;text&quot;}"><g data-paper-data="{&quot;baseline&quot;:70.7,&quot;elementType&quot;:&quot;row&quot;}"><g data-paper-data="{&quot;baselineProportion&quot;:0.9888111888111889,&quot;fontSize&quot;:100,&quot;baseline&quot;:70.7,&quot;elementType&quot;:&quot;word&quot;}"><path d="M66.5,293.6875h-16.5l28.5,-84.25h20.375l28.5,84.25h-17l-6,-19.125h-31.875l-6,19.125M88.5,221.1875c-0.66667,3.58333 -4.625,17.08333 -11.875,40.5h23.75c-6.91667,-22.75 -10.875,-36.25 -11.875,-40.5z" data-paper-data="{&quot;elementType&quot;:&quot;letter&quot;,&quot;baseline&quot;:67.4,&quot;baselineProportion&quot;:1,&quot;fontSize&quot;:100}"></path><path d="M169.25,293.6875h-15.125v-88.375h15.125v34.625c4.41667,-7 10.66667,-10.5 18.75,-10.5c8.08333,0 14.6875,2.9375 19.8125,8.8125c5.125,5.875 7.6875,13.5625 7.6875,23.0625c0,9.5 -2.4375,17.41667 -7.3125,23.75c-4.875,6.33333 -11.47917,9.5 -19.8125,9.5c-8.33333,0 -14.70833,-3.54167 -19.125,-10.625zM185.0625,242.1875c0,0 -1.05208,0 -3.15625,0c-2.10417,0 -4.73958,1.60417 -7.90625,4.8125c-3.16667,3.20833 -4.75,8.0625 -4.75,14.5625c0,6.5 1.5,11.47917 4.5,14.9375c3,3.45833 6.70833,5.1875 11.125,5.1875c4.41667,0 8.08333,-1.79167 11,-5.375c2.91667,-3.58333 4.375,-8.39583 4.375,-14.4375c0,-6.04167 -1.47917,-10.83333 -4.4375,-14.375c-2.95833,-3.54167 -6.54167,-5.3125 -10.75,-5.3125" data-paper-data="{&quot;elementType&quot;:&quot;letter&quot;,&quot;baseline&quot;:70.7,&quot;baselineProportion&quot;:0.9901960784313725,&quot;fontSize&quot;:100}"></path><path d="M271.0625,229.3125c0,0 2.36458,0 7.09375,0c4.72917,0 9.76042,3.0625 15.09375,9.1875c5.33333,6.125 8,13.9375 8,23.4375c0,9.5 -2.6875,17.33333 -8.0625,23.5c-5.375,6.16667 -12.875,9.25 -22.5,9.25c-9.625,0 -17.125,-3 -22.5,-9c-5.375,-6 -8.0625,-13.75 -8.0625,-23.25c0,-9.5 2.79167,-17.39583 8.375,-23.6875c5.58333,-6.29167 13.10417,-9.4375 22.5625,-9.4375zM270.9375,241.5625c0,0 -1.23958,0 -3.71875,0c-2.47917,0 -4.98958,1.95833 -7.53125,5.875c-2.54167,3.91667 -3.8125,8.8125 -3.8125,14.6875c0,5.875 1.29167,10.77083 3.875,14.6875c2.58333,3.91667 6.29167,5.875 11.125,5.875c4.83333,0 8.5,-1.91667 11,-5.75c2.5,-3.83333 3.75,-8.75 3.75,-14.75c0,-6 -1.20833,-10.9375 -3.625,-14.8125c-2.41667,-3.875 -6.10417,-5.8125 -11.0625,-5.8125" data-paper-data="{&quot;elementType&quot;:&quot;letter&quot;,&quot;baseline&quot;:51.5,&quot;baselineProportion&quot;:0.9847036328871893,&quot;fontSize&quot;:100}"></path><path d="M383.625,293.6875h-15.125v-10.375c-3.33333,7.33333 -9.83333,11 -19.5,11c-6.41667,0 -11.41667,-1.83333 -15,-5.5c-3.58333,-3.66667 -5.375,-8.875 -5.375,-15.625v-42.875h15v39.375c0,4 0.97917,7.04167 2.9375,9.125c1.95833,2.08333 4.875,3.125 8.75,3.125c3.875,0 7.04167,-1.45833 9.5,-4.375c2.45833,-2.91667 3.6875,-7.33333 3.6875,-13.25v-34h15.125z" data-paper-data="{&quot;elementType&quot;:&quot;letter&quot;,&quot;baseline&quot;:50.7,&quot;baselineProportion&quot;:0.990234375,&quot;fontSize&quot;:100}"></path><path d="M438.75,294.3125c-13.66667,0 -20.5,-6.91667 -20.5,-20.75v-32h-9.5v-11.25h9.5v-15.25h15v15.25h15.75v11.25h-15.75v32.25c0,2.66667 0.70833,4.6875 2.125,6.0625c1.41667,1.375 3.54167,2.0625 6.375,2.0625c2.83333,0 5.58333,-0.875 8.25,-2.625v12.875c-2.91667,1.41667 -6.66667,2.125 -11.25,2.125z" data-paper-data="{&quot;elementType&quot;:&quot;letter&quot;,&quot;baseline&quot;:62.900000000000006,&quot;baselineProportion&quot;:0.9921135646687698,&quot;fontSize&quot;:100}"></path></g></g></g></g></g></svg>